<?xml version="1.0" standalone="no"?>
<!DOCTYPE svg PUBLIC "-//W3C//DTD SVG 20010904//EN"
 "http://www.w3.org/TR/2001/REC-SVG-20010904/DTD/svg10.dtd">
<svg version="1.0" xmlns="http://www.w3.org/2000/svg"
 width="456.000000pt" height="301.000000pt" viewBox="0 0 456.000000 301.000000"
 preserveAspectRatio="xMidYMid meet">

<g transform="translate(0.000000,301.000000) scale(0.100000,-0.100000)"
fill="#000000" stroke="none">
<path d="M1967 2391 c-13 -22 -14 -30 -5 -34 8 -4 7 -6 -4 -6 -9 -1 -20 -6
-24 -13 -5 -7 -3 -8 7 -3 8 5 -10 -14 -40 -41 -63 -58 -137 -104 -168 -104
-12 0 -25 -4 -28 -10 -9 -15 47 -12 96 5 24 9 61 27 81 40 48 32 63 32 42 0
-9 -14 -14 -32 -10 -40 3 -8 1 -15 -4 -15 -6 0 -9 -3 -8 -7 0 -5 -2 -15 -5
-23 -3 -8 -27 -73 -52 -143 -71 -198 -119 -301 -190 -407 -98 -148 -202 -230
-293 -230 -60 0 -89 15 -111 57 -18 34 -20 36 -21 13 0 -44 35 -88 81 -100
186 -50 392 178 583 648 56 136 62 157 46 147 -9 -5 -11 -4 -6 4 4 6 12 9 17
6 5 -4 10 0 10 7 5 37 3 54 -5 66 -5 7 -4 12 3 12 6 0 11 -4 11 -10 0 -5 8 -6
17 -3 11 4 13 8 5 11 -10 3 -10 7 0 20 11 13 10 15 -9 10 -18 -5 -23 -2 -23
14 0 17 3 18 15 8 13 -10 15 -9 15 12 0 13 6 30 13 37 8 10 8 12 0 7 -20 -11
-27 16 -8 31 14 10 15 13 4 14 -8 0 -6 4 6 9 14 6 15 9 5 9 -9 1 -21 -4 -28
-11 -9 -9 -12 -9 -12 -1 0 7 10 19 22 27 16 11 18 16 7 16 -8 0 -22 -13 -32
-29z m14 -76 c5 4 6 -2 2 -11 -4 -12 -8 -14 -11 -6 -3 10 -7 10 -17 2 -10 -8
-15 -8 -21 1 -4 8 -3 9 5 5 6 -4 14 0 18 10 4 11 8 13 11 6 2 -7 8 -10 13 -7z"/>
<path d="M2005 2300 c-3 -6 1 -7 9 -4 18 7 21 14 7 14 -6 0 -13 -4 -16 -10z"/>
<path d="M1983 2188 c-5 -7 -6 -31 -2 -53 l6 -40 2 43 c0 26 5 41 11 37 6 -3
7 1 4 9 -7 19 -9 19 -21 4z"/>
<path d="M1983 2061 c0 -10 6 -18 12 -18 16 0 15 25 -1 31 -8 3 -12 -2 -11
-13z"/>
<path d="M1984 2008 c-9 -14 -2 -16 26 -8 25 6 25 6 3 12 -13 3 -26 2 -29 -4z"/>
<path d="M1997 1971 c-4 -17 -3 -21 5 -13 5 5 8 16 6 23 -3 8 -7 3 -11 -10z"/>
<path d="M2001 1941 c-12 -8 -12 -12 1 -25 14 -14 17 -14 22 0 3 8 2 12 -4 9
-6 -3 -10 -2 -10 4 0 5 6 12 13 14 6 3 8 6 2 6 -5 0 -16 -3 -24 -8z"/>
<path d="M2006 1837 c3 -10 9 -15 12 -12 3 3 0 11 -7 18 -10 9 -11 8 -5 -6z"/>
<path d="M650 890 l0 -211 33 3 32 3 5 126 5 126 90 -128 c69 -99 95 -128 113
-129 l22 0 0 205 c0 198 -1 205 -20 205 -11 0 -23 0 -27 0 -5 0 -10 -60 -13
-132 l-5 -133 -95 135 c-67 95 -102 136 -118 138 l-22 3 0 -211z"/>
<path d="M1010 1015 c0 -132 32 -185 113 -185 29 0 46 7 68 29 28 29 29 32 29
135 l0 106 -30 0 -30 0 0 -88 c0 -75 -3 -92 -19 -106 -15 -14 -24 -15 -40 -6
-19 10 -21 20 -21 105 l0 95 -35 0 -35 0 0 -85z"/>
<path d="M1590 896 l0 -206 30 0 30 0 0 65 c0 64 0 65 28 65 19 0 40 -14 72
-47 55 -57 119 -105 131 -97 5 3 15 2 21 -2 21 -13 47 -11 52 3 3 7 1 13 -4
13 -6 0 -10 5 -10 11 0 6 9 8 23 4 15 -4 18 -3 9 3 -19 13 9 24 29 11 12 -7
12 -9 0 -9 -8 0 -12 -3 -8 -6 3 -3 14 -1 24 5 14 8 14 10 3 11 -12 0 -13 2 -1
9 9 6 10 11 2 15 -6 4 -11 3 -11 -3 0 -5 -9 -10 -20 -10 -11 -1 -29 -1 -40 -2
-11 0 -18 -4 -15 -10 4 -5 -1 -9 -10 -9 -10 0 -13 5 -9 13 4 6 4 9 -1 5 -4 -4
-14 -3 -22 3 -7 6 -13 9 -13 6 0 -2 -25 18 -56 46 l-55 51 31 29 c18 17 29 35
26 44 -3 8 -1 11 4 8 15 -9 12 76 -3 105 -8 14 -19 24 -26 22 -7 -1 -10 2 -6
8 10 16 -52 37 -132 44 l-73 7 0 -205z m164 113 c29 -23 35 -63 13 -93 -13
-18 -92 -41 -108 -31 -5 4 -9 37 -9 76 l0 69 39 0 c24 0 48 -8 65 -21z m169
-322 c4 3 7 4 7 0 0 -18 -21 -14 -30 5 -10 21 -10 21 3 6 8 -10 17 -15 20 -11z"/>
<path d="M1290 1061 c0 -28 3 -30 43 -33 l42 -3 3 -97 3 -98 29 0 30 0 0 100
0 100 45 0 c43 0 45 1 45 30 l0 30 -120 0 -120 0 0 -29z"/>
<path d="M1912 953 c0 -87 4 -131 9 -120 6 10 16 14 26 10 15 -6 14 -7 -3 -14
-17 -7 -17 -8 4 -8 23 -1 30 13 12 24 -6 4 -10 57 -10 126 0 112 -1 119 -20
119 -18 0 -19 -7 -18 -137z"/>
<path d="M1980 680 c-9 -6 -10 -10 -3 -10 6 0 15 5 18 10 8 12 4 12 -15 0z"/>
</g>
</svg>
